<svg width="510" height="235" viewBox="0 0 510 235" fill="none" xmlns="http://www.w3.org/2000/svg">
<path d="M232.095 111.491L205.206 84.5557C203.589 82.9788 202.696 80.8052 202.696 78.5464V40.4879C202.696 35.7572 198.909 31.9641 194.187 31.9641H156.194C153.939 31.9641 151.769 31.0265 150.195 29.4496L123.307 2.51451C119.988 -0.809757 114.585 -0.809757 111.266 2.51451L84.4203 29.4496C82.8036 31.0265 80.6338 31.9641 78.3789 31.9641H40.386C35.6635 31.9641 31.877 35.7572 31.877 40.4879V78.5464C31.877 80.8052 30.9835 82.9788 29.3668 84.5557L2.5208 111.491C-0.840268 114.815 -0.840268 120.228 2.5208 123.552L29.3668 150.444C30.9835 152.064 31.877 154.237 31.877 156.496V194.555C31.877 199.285 35.6635 203.079 40.386 203.079H78.3789C80.6338 203.079 82.8036 203.974 84.4203 205.593L111.266 232.485C114.585 235.81 119.988 235.81 123.307 232.485L150.195 205.593C151.769 203.974 153.939 203.079 156.194 203.079H194.187C198.909 203.079 202.696 199.285 202.696 194.555V156.496C202.696 154.237 203.589 152.064 205.206 150.444L232.095 123.552C235.413 120.228 235.413 114.815 232.095 111.491ZM153.003 157.817C151.429 159.139 148.408 160.46 143.728 161.909C138.283 163.614 133.347 164.466 128.88 164.466C115.138 164.466 103.778 159.863 94.9715 150.7C86.037 141.622 81.5698 130.03 81.5698 116.094C81.5698 102.157 86.037 90.9485 95.0992 81.6576C104.119 72.3667 115.223 67.7639 128.412 67.7639C136.964 67.7639 145.047 69.8096 152.79 74.1567V87.1128C149.259 84.9393 146.749 83.4902 145.175 82.7231C140.58 80.8052 135.262 79.825 129.348 79.825C119.095 79.825 110.883 83.1066 104.374 89.7552C97.737 96.6594 94.5035 105.482 94.5035 116.349C94.5035 127.217 97.4817 135.443 103.651 141.963C110.16 148.867 118.627 152.234 129.348 152.234C136.24 152.234 144.196 149.72 153.003 144.648V157.817Z" fill="#8B5CF6"/>
<path d="M412.061 95.6792C412.061 101.007 410.359 104.97 407.083 107.868C403.85 110.681 399.595 112.002 394.32 112.002H373.175V80.9331H395.043C399.85 80.9331 403.85 82.1264 406.956 84.6835C410.359 87.3259 412.061 91.0764 412.061 95.6792Z" fill="#8B5CF6"/>
<path d="M392.745 0C327.949 0 275.448 52.6342 275.448 117.5C275.448 182.366 327.949 235 392.745 235C457.542 235 510 182.366 510 117.5C510 52.6342 457.499 0 392.745 0ZM418.187 115.028C413.507 120.355 407.594 123.126 400.233 123.126H373.175V162.292H360.624V69.6817H395.979C404.19 69.6817 410.955 71.9831 416.401 76.7138C422.059 81.6576 424.825 88.0504 424.825 96.148C424.825 103.521 422.655 109.829 418.187 115.028Z" fill="#8B5CF6"/>
</svg>
