<svg preserveAspectRatio="none" width="100%" height="100%" overflow="visible" style="display: block;" viewBox="0 0 193.74 26.2393" fill="none" xmlns="http://www.w3.org/2000/svg">
<g id="logo">
<g id="Vector">
<path d="M85.377 0V19.7806H87.9345V0H85.377Z" fill="var(--fill-0, #8B5CF6)"/>
<path d="M122.879 5.88506C121.434 4.30969 119.575 3.53575 117.328 3.53575C116.216 3.53575 115.289 3.68897 114.515 4.0504C113.663 4.41183 112.81 5.05613 111.958 6.01078V0H109.4V19.7806H111.903V17.4313C112.292 18.1541 113.015 18.7748 114.02 19.2895C115.105 19.8316 116.216 20.1145 117.352 20.1145C119.701 20.1145 121.587 19.2384 123.005 17.4313C124.298 15.8009 124.942 13.7894 124.942 11.4362C124.942 9.2401 124.247 7.38186 122.875 5.88506H122.879ZM121.072 15.8284C120.118 17.1445 118.774 17.8163 117.069 17.8163C115.494 17.8163 114.205 17.3016 113.246 16.288C112.241 15.2548 111.722 13.8366 111.722 12.0294C111.722 10.0926 112.213 8.54473 113.195 7.43294C114.178 6.34864 115.466 5.80649 117.12 5.80649C118.668 5.80649 119.933 6.37614 120.943 7.51151C121.925 8.62331 122.388 9.96296 122.388 11.5148C122.388 13.2198 121.948 14.6694 121.072 15.8323V15.8284Z" fill="var(--fill-0, #8B5CF6)"/>
<path d="M153.735 0V19.7806H156.292V0H153.735Z" fill="var(--fill-0, #8B5CF6)"/>
<path d="M172.105 3.92468V5.91256C171.924 5.7122 171.743 5.52363 171.551 5.3547C171.48 5.28791 171.405 5.22113 171.327 5.15434C171.248 5.08755 171.166 5.02077 171.079 4.95398C170.977 4.87148 170.879 4.80077 170.773 4.72612C170.392 4.45898 169.995 4.23504 169.579 4.05826C169.469 4.01111 169.355 3.96397 169.249 3.92861C169.245 3.92468 169.237 3.92468 169.237 3.92468C168.879 3.79111 168.518 3.69682 168.141 3.63397C168.047 3.61825 167.948 3.60254 167.858 3.59075C167.764 3.57504 167.673 3.56325 167.579 3.55932C167.5 3.55539 167.426 3.54754 167.347 3.54361C167.229 3.53968 167.104 3.53182 166.982 3.53182C166.848 3.53182 166.715 3.53575 166.585 3.54361C166.503 3.54754 166.424 3.54754 166.349 3.55932C166.247 3.56325 166.141 3.57504 166.039 3.59075C165.827 3.6104 165.623 3.64575 165.418 3.68897C165.293 3.71647 165.171 3.74004 165.045 3.7754C164.947 3.8029 164.849 3.82647 164.754 3.8579C164.692 3.87361 164.629 3.89326 164.57 3.92076C164.432 3.9679 164.287 4.0229 164.153 4.08183C164.016 4.13683 163.878 4.19969 163.745 4.26647C163.611 4.33326 163.478 4.40398 163.348 4.48255C163.218 4.56112 163.089 4.63576 162.967 4.72612C162.837 4.80862 162.715 4.90291 162.594 4.99327C162.468 5.08755 162.35 5.1897 162.232 5.29184C162.134 5.37827 162.036 5.46863 161.938 5.56684C161.804 5.69256 161.674 5.83006 161.545 5.97149C160.103 7.58615 159.388 9.53867 159.388 11.8723C159.388 14.2059 160.079 16.0602 161.521 17.6513C162.955 19.2934 164.754 20.1145 166.88 20.1145C167.984 20.1145 169.037 19.8552 170.062 19.3445C170.918 18.8966 171.594 18.3545 172.101 17.7023V19.7766H174.658V3.92468H172.101H172.105ZM172.105 14.1351C171.861 14.9562 171.48 15.6595 170.965 16.2409C170.066 17.2623 168.813 17.7809 167.249 17.7809C165.685 17.7809 164.475 17.1916 163.45 16.0091C162.452 14.8777 161.938 13.5419 161.938 11.9783C161.938 10.234 162.452 8.77259 163.423 7.59008C164.424 6.4115 165.685 5.81828 167.222 5.81828C168.915 5.81828 170.223 6.36042 171.146 7.48401C171.57 7.99866 171.889 8.59973 172.105 9.29117C172.321 9.98261 172.431 10.7683 172.431 11.6405C172.431 12.5755 172.321 13.4005 172.105 14.1351Z" fill="var(--fill-0, #8B5CF6)"/>
<path d="M148.242 5.97542C148.117 5.84185 147.995 5.7122 147.869 5.58649C147.783 5.50006 147.689 5.41756 147.594 5.33506C147.575 5.31541 147.551 5.2997 147.531 5.28006C147.421 5.18184 147.307 5.09541 147.197 5.00505C147.099 4.92648 146.997 4.85184 146.891 4.78112C146.836 4.73398 146.777 4.69862 146.714 4.66326C146.644 4.61219 146.569 4.56505 146.49 4.51791C146.392 4.45505 146.29 4.40005 146.18 4.34897C146.113 4.30576 146.046 4.27826 145.972 4.23897C145.858 4.18397 145.744 4.12897 145.63 4.08576C145.496 4.03076 145.355 3.97183 145.213 3.92468C145.064 3.87361 144.915 3.82647 144.766 3.79111C144.75 3.77933 144.73 3.7754 144.715 3.7754C144.577 3.74004 144.436 3.70468 144.29 3.67718C144.255 3.67325 144.212 3.66147 144.176 3.65754C144.047 3.63004 143.917 3.61432 143.787 3.60254C143.744 3.59861 143.705 3.59075 143.662 3.58682C143.508 3.57111 143.351 3.55539 143.198 3.55147C143.08 3.54754 142.962 3.53968 142.837 3.53968H142.793C142.66 3.53968 142.526 3.54361 142.385 3.55539C142.236 3.56718 142.09 3.5829 141.941 3.60647C141.811 3.62218 141.682 3.64968 141.552 3.67325C141.521 3.67718 141.489 3.68504 141.458 3.6929C141.344 3.71254 141.23 3.74397 141.116 3.7754C140.951 3.82254 140.79 3.86968 140.625 3.92468C140.609 3.93647 140.593 3.9404 140.578 3.94433C140.444 3.99147 140.311 4.04647 140.177 4.1054C140.146 4.11719 140.114 4.1329 140.083 4.14862C139.933 4.2154 139.784 4.28612 139.635 4.36469C138.9 4.77326 138.335 5.24077 137.922 5.79078C137.836 5.90863 137.753 6.03435 137.675 6.16399V3.92861H135.117V26.2392H137.675V17.7102C137.91 18.0205 138.189 18.3034 138.511 18.5627L138.555 18.5981C138.896 18.877 139.281 19.1245 139.71 19.3523C140.739 19.8631 141.792 20.1224 142.896 20.1224C145.021 20.1224 146.82 19.3013 148.254 17.6591C149.688 16.068 150.387 14.143 150.387 11.8801C150.387 9.61724 149.665 7.59401 148.231 5.97935L148.242 5.97542ZM146.773 15.9855C145.791 17.3016 144.475 17.9459 142.825 17.9459C141.654 17.9459 140.652 17.667 139.839 17.0934C139.835 17.0934 139.827 17.0895 139.823 17.0816C139.45 16.8577 139.12 16.5748 138.826 16.2409C138.311 15.6555 137.926 14.9562 137.686 14.1351C137.47 13.4005 137.36 12.5755 137.36 11.6405C137.36 10.7683 137.47 9.98261 137.686 9.29117C137.902 8.59973 138.225 7.99866 138.645 7.48401C139.478 6.4665 140.621 5.92828 142.082 5.83006H142.094C142.255 5.81435 142.42 5.80256 142.589 5.80256C144.369 5.80256 145.763 6.39578 146.746 7.58222C147.649 8.66652 148.089 10.0337 148.089 11.7112C148.089 13.3887 147.649 14.7873 146.773 15.9777V15.9855Z" fill="var(--fill-0, #8B5CF6)"/>
<path d="M191.107 3.92468L186.409 14.9994L180.677 3.92468H177.758L185.218 17.7141L181.243 26.2313H184.032L193.74 3.92076H191.107V3.92468Z" fill="var(--fill-0, #8B5CF6)"/>
<path d="M102.466 3.88933V12.8584C102.466 14.3041 102.105 15.4669 101.41 16.343C100.659 17.3252 99.5749 17.7888 98.1567 17.7888C96.1413 17.7888 94.8763 16.6534 94.8763 14.638V3.88933H92.3188V15.3373C92.3188 16.6809 92.8609 17.8398 93.9727 18.7709C95.0295 19.647 96.2435 20.1184 97.6145 20.1184C99.6535 20.1184 101.28 19.3406 102.466 17.7652V19.7845H105.024V3.88933H102.466Z" fill="var(--fill-0, #8B5CF6)"/>
<path d="M70.7036 8.5408C70.1065 9.49153 69.804 10.5994 69.804 11.8644C69.804 13.4791 70.3658 14.8384 71.4933 15.962C72.3929 16.897 73.4694 17.447 74.7108 17.6238C74.8915 17.6434 75.0722 17.667 75.2569 17.6709C75.359 17.6748 75.4651 17.6748 75.5712 17.6748C77.0365 17.6748 78.3605 17.1955 79.5115 16.2134C79.5115 16.2134 80.0419 15.7223 80.2855 15.4552V18.5116C78.6551 19.5291 77.0758 20.0595 75.4887 20.1066C75.4179 20.1106 75.3394 20.1106 75.2608 20.1106C73.0569 20.1106 71.1633 19.317 69.5722 17.6984C68.3072 16.3941 67.545 14.8423 67.3014 13.0823C67.2857 12.9487 67.27 12.8073 67.2543 12.6737C67.2347 12.3908 67.2189 12.1041 67.2189 11.8133C67.2189 9.50724 68.0125 7.55865 69.5997 5.94792C69.8275 5.72006 70.0593 5.51577 70.295 5.31149C70.295 5.31149 70.2964 5.31149 70.299 5.31149C70.4797 5.16613 70.6643 5.02862 70.8529 4.89898C70.9904 4.80469 71.1358 4.71434 71.285 4.62398C71.5758 4.45898 71.8743 4.30969 72.1847 4.17612C72.3379 4.11326 72.499 4.0504 72.6601 3.9954C73.0372 3.86183 73.4301 3.76361 73.8308 3.68504C73.9644 3.65754 74.1058 3.6379 74.2394 3.61825C74.3651 3.60254 74.4908 3.58682 74.6165 3.57504C74.7619 3.55932 74.9111 3.54754 75.0604 3.54361C75.1312 3.53968 75.2097 3.53182 75.2883 3.53968C75.359 3.53575 75.4376 3.53575 75.5162 3.53575C75.799 3.53575 76.074 3.54754 76.349 3.56718C76.4197 3.57111 76.4944 3.58289 76.5651 3.59468C77.9087 3.75575 79.1344 4.24683 80.2894 5.04434V8.09687C80.1126 7.90437 79.9398 7.72365 79.7512 7.56651C78.5805 6.50971 77.1858 5.97149 75.524 5.97149C73.8622 5.97149 72.4479 6.56078 71.3204 7.76294C71.124 7.97508 70.9433 8.19116 70.7822 8.42295C70.7508 8.4583 70.7272 8.50152 70.7036 8.53688V8.5408Z" fill="var(--fill-0, #8B5CF6)"/>
</g>
<g id="Vector_2">
<path d="M25.9523 12.446L22.947 9.44057C22.7663 9.26379 22.668 9.02021 22.668 8.76878V4.52195C22.668 3.99552 22.2437 3.57123 21.7173 3.57123H17.4705C17.2191 3.57123 16.9755 3.46515 16.7987 3.29229L13.7933 0.286905C13.424 -0.0823842 12.819 -0.0823842 12.4458 0.286905L9.44436 3.29229C9.26365 3.46908 9.02007 3.57123 8.76864 3.57123H4.52182C3.99539 3.57123 3.5711 3.99552 3.5711 4.52195V8.76878C3.5711 9.02021 3.47288 9.26379 3.29217 9.44057L0.282859 12.446C-0.0942865 12.8153 -0.0942865 13.4203 0.282859 13.7935L3.28431 16.7949C3.46503 16.9757 3.56324 17.2192 3.56324 17.4707V21.7175C3.56324 22.2439 3.98753 22.6682 4.51396 22.6682H8.76078C9.01221 22.6682 9.25579 22.7664 9.4365 22.9471L12.438 25.9486C12.8072 26.3179 13.4122 26.3179 13.7855 25.9486L16.7908 22.9471C16.9676 22.7664 17.2112 22.6682 17.4626 22.6682H21.7095C22.2359 22.6682 22.6602 22.2439 22.6602 21.7175V17.4707C22.6602 17.2192 22.7584 16.9757 22.9391 16.7949L25.9445 13.7935C26.3138 13.4242 26.3138 12.8192 25.9445 12.446H25.9523ZM17.1091 17.616C16.9323 17.7653 16.5944 17.9107 16.0719 18.0717C15.463 18.2603 14.913 18.3585 14.4101 18.3585C12.874 18.3585 11.6051 17.8439 10.619 16.8224C9.62115 15.8089 9.12222 14.5163 9.12222 12.9606C9.12222 11.4049 9.62115 10.1556 10.6347 9.11843C11.6444 8.08127 12.8858 7.56663 14.359 7.56663C15.3137 7.56663 16.2212 7.79449 17.0855 8.28163V9.72736C16.6887 9.48379 16.4098 9.32272 16.233 9.23629C15.7183 9.02414 15.1251 8.91414 14.4612 8.91414C13.314 8.91414 12.3947 9.2795 11.668 10.022C10.9254 10.792 10.564 11.7781 10.564 12.992C10.564 14.206 10.8979 15.1253 11.5854 15.8521C12.3122 16.6221 13.259 16.9992 14.4573 16.9992C15.2273 16.9992 16.1191 16.7203 17.1012 16.1506V17.6199L17.1091 17.616Z" fill="var(--fill-0, #8B5CF6)"/>
<path d="M46.0786 10.682C46.0786 11.2752 45.89 11.7192 45.5207 12.0413C45.1593 12.3556 44.6839 12.501 44.0946 12.501H41.7296V9.032H44.1732C44.7114 9.032 45.1593 9.16557 45.505 9.45236C45.8861 9.74701 46.0747 10.1674 46.0747 10.6781L46.0786 10.682Z" fill="var(--fill-0, #8B5CF6)"/>
<path d="M43.9178 0.000116654C36.6735 0.000116654 30.8002 5.87732 30.8002 13.1178C30.8002 20.3582 36.6696 26.2354 43.9178 26.2354C51.1661 26.2354 57.0315 20.3582 57.0315 13.1178C57.0315 5.87732 51.1583 0.000116654 43.9178 0.000116654ZM46.7622 12.8428C46.2397 13.436 45.5757 13.7463 44.7546 13.7463H41.7296V18.1189H40.3271V7.77877H44.2793C45.1986 7.77877 45.9529 8.03413 46.5618 8.56449C47.1943 9.1145 47.5047 9.82951 47.5047 10.7331C47.5047 11.5581 47.2611 12.2613 46.7622 12.8388V12.8428Z" fill="var(--fill-0, #8B5CF6)"/>
</g>
</g>
</svg>
