<svg preserveAspectRatio="none" width="100%" height="100%" overflow="visible" style="display: block;" viewBox="0 0 65 30" fill="none" xmlns="http://www.w3.org/2000/svg">
<g id="clubplay.io">
<g id="Vector" filter="url(#filter0_ii_0_234)">
<path d="M29.5807 14.2329L26.1537 10.7943C25.9477 10.593 25.8338 10.3156 25.8338 10.0272V5.16866C25.8338 4.56474 25.3512 4.08052 24.7493 4.08052H19.9071C19.6197 4.08052 19.3432 3.96083 19.1425 3.75952L15.7156 0.321001C15.2926 -0.103373 14.604 -0.103373 14.181 0.321001L10.7595 3.75952C10.5534 3.96083 10.2769 4.08052 9.98947 4.08052H5.14724C4.54535 4.08052 4.06275 4.56474 4.06275 5.16866V10.0272C4.06275 10.3156 3.94888 10.593 3.74283 10.7943L0.321279 14.2329C-0.107093 14.6572 -0.107093 15.3482 0.321279 15.7726L3.74283 19.2057C3.94888 19.4124 4.06275 19.6899 4.06275 19.9782V24.8368C4.06275 25.4407 4.54535 25.9249 5.14724 25.9249H9.98947C10.2769 25.9249 10.5534 26.0392 10.7595 26.2459L14.181 29.679C14.604 30.1034 15.2926 30.1034 15.7156 29.679L19.1425 26.2459C19.3432 26.0392 19.6197 25.9249 19.9071 25.9249H24.7493C25.3512 25.9249 25.8338 25.4407 25.8338 24.8368V19.9782C25.8338 19.6899 25.9477 19.4124 26.1537 19.2057L29.5807 15.7726C30.0036 15.3482 30.0036 14.6572 29.5807 14.2329ZM19.5004 20.1469C19.2998 20.3156 18.9148 20.4842 18.3183 20.6692C17.6242 20.8868 16.9952 20.9956 16.4259 20.9956C14.6744 20.9956 13.2267 20.4081 12.1042 19.2383C10.9655 18.0794 10.3961 16.5996 10.3961 14.8205C10.3961 13.0413 10.9655 11.6104 12.1205 10.4244C13.27 9.2383 14.6853 8.65071 16.3662 8.65071C17.4562 8.65071 18.4864 8.91186 19.4733 9.46681V11.1208C19.0232 10.8433 18.7033 10.6583 18.5027 10.5604C17.9171 10.3156 17.2393 10.1904 16.4855 10.1904C15.1787 10.1904 14.1322 10.6094 13.3026 11.4581C12.4567 12.3395 12.0446 13.4657 12.0446 14.8531C12.0446 16.2405 12.4241 17.2905 13.2104 18.123C14.04 19.0044 15.1191 19.4342 16.4855 19.4342C17.364 19.4342 18.378 19.1132 19.5004 18.4657V20.1469Z" fill="var(--fill-0, #8B5CF6)"/>
<path d="M52.5176 12.2144C52.5176 12.8945 52.3007 13.4004 51.8831 13.7704C51.471 14.1295 50.9288 14.2982 50.2564 14.2982H47.5615V10.3319H50.3486C50.9613 10.3319 51.471 10.4842 51.8669 10.8107C52.3007 11.148 52.5176 11.6268 52.5176 12.2144Z" fill="var(--fill-0, #8B5CF6)"/>
<path d="M50.0558 0C41.7974 0 35.1062 6.71926 35.1062 15C35.1062 23.2807 41.7974 30 50.0558 30C58.3141 30 65 23.2807 65 15C65 6.71926 58.3087 0 50.0558 0ZM53.2984 14.6844C52.7019 15.3645 51.9482 15.7182 51.0101 15.7182H47.5615V20.7182H45.9619V8.89554H50.4679C51.5144 8.89554 52.3766 9.18934 53.0707 9.79325C53.7918 10.4244 54.1443 11.2405 54.1443 12.2742C54.1443 13.2155 53.8678 14.0207 53.2984 14.6844Z" fill="var(--fill-0, #8B5CF6)"/>
</g>
</g>
<defs>
<filter id="filter0_ii_0_234" x="-1" y="-1" width="67" height="33" filterUnits="userSpaceOnUse" color-interpolation-filters="sRGB">
<feFlood flood-opacity="0" result="BackgroundImageFix"/>
<feBlend mode="normal" in="SourceGraphic" in2="BackgroundImageFix" result="shape"/>
<feColorMatrix in="SourceAlpha" type="matrix" values="0 0 0 0 0 0 0 0 0 0 0 0 0 0 0 0 0 0 127 0" result="hardAlpha"/>
<feOffset dx="1" dy="2"/>
<feGaussianBlur stdDeviation="2"/>
<feComposite in2="hardAlpha" operator="arithmetic" k2="-1" k3="1"/>
<feColorMatrix type="matrix" values="0 0 0 0 1 0 0 0 0 1 0 0 0 0 1 0 0 0 0.25 0"/>
<feBlend mode="normal" in2="shape" result="effect1_innerShadow_0_234"/>
<feColorMatrix in="SourceAlpha" type="matrix" values="0 0 0 0 0 0 0 0 0 0 0 0 0 0 0 0 0 0 127 0" result="hardAlpha"/>
<feOffset dx="-1" dy="-1"/>
<feGaussianBlur stdDeviation="2"/>
<feComposite in2="hardAlpha" operator="arithmetic" k2="-1" k3="1"/>
<feColorMatrix type="matrix" values="0 0 0 0 1 0 0 0 0 1 0 0 0 0 1 0 0 0 0.25 0"/>
<feBlend mode="normal" in2="effect1_innerShadow_0_234" result="effect2_innerShadow_0_234"/>
</filter>
</defs>
</svg>
