<svg width="138" height="25" viewBox="0 0 138 25" fill="none" xmlns="http://www.w3.org/2000/svg">
<g id="Game Night" filter="url(#filter0_ii_0_250)">
<path d="M0 10.0587C0 8.06653 0.337587 6.31448 1.01276 4.80256C1.7057 3.29064 2.70958 2.11669 4.02439 1.28068C5.35697 0.426895 6.96495 0 8.84832 0C11.0693 0 12.7928 0.524724 14.0187 1.57417C15.2625 2.60583 16.062 4.00214 16.4174 5.76307L12.926 6.18997C12.6773 5.21167 12.2508 4.43792 11.6467 3.86873C11.0426 3.29954 10.1009 3.01494 8.82167 3.01494C7.61347 3.01494 6.62736 3.31733 5.86335 3.92209C5.1171 4.52686 4.5663 5.35397 4.21095 6.40342C3.8556 7.43508 3.67792 8.62682 3.67792 9.97866C3.67792 12.1665 4.12211 13.883 5.0105 15.1281C5.91665 16.3554 7.3203 16.9691 9.22145 16.9691C10.021 16.9691 10.7761 16.8801 11.4868 16.7022C12.1975 16.5244 12.8372 16.2487 13.4057 15.8751V12.2199H9.3014V9.31163H16.7372V17.3959C15.76 18.2497 14.5873 18.899 13.2192 19.3437C11.8511 19.7883 10.483 20.0107 9.11484 20.0107C6.20093 20.0107 3.95332 19.1391 2.37199 17.3959C0.790664 15.635 0 13.1893 0 10.0587Z" fill="var(--fill-0, #161719)"/>
<path d="M18.2403 15.6884C18.2403 14.7812 18.4269 14.0253 18.8 13.4205C19.1909 12.8157 19.715 12.3444 20.3724 12.0064C21.0298 11.6507 21.7761 11.4016 22.6112 11.2593C23.464 11.0993 24.3524 11.0014 25.2763 10.9658L27.4084 10.8858V10.3789C27.4084 9.41836 27.2041 8.72465 26.7955 8.29776C26.3868 7.85308 25.7294 7.63074 24.8232 7.63074C23.9349 7.63074 23.2774 7.79082 22.851 8.11099C22.4246 8.41338 22.1403 8.84916 21.9982 9.41836L18.9865 9.15155C19.2353 7.79972 19.8572 6.81252 20.8522 6.18997C21.8471 5.54963 23.2064 5.22946 24.9298 5.22946C26.9909 5.22946 28.4567 5.70082 29.3274 6.64354C30.198 7.56848 30.6333 8.91142 30.6333 10.6724V19.5304H27.515V17.8228C26.982 18.4276 26.3513 18.9256 25.6228 19.317C24.8943 19.6905 24.0148 19.8773 22.9843 19.8773C21.5806 19.8773 20.4346 19.5215 19.5462 18.81C18.6756 18.0808 18.2403 17.0402 18.2403 15.6884ZM21.4918 15.5283C21.4918 16.0975 21.6695 16.5599 22.0248 16.9157C22.3802 17.2536 22.9576 17.4226 23.7572 17.4226C24.8588 17.4226 25.7383 17.138 26.3957 16.5688C27.0709 15.9996 27.4084 15.1992 27.4084 14.1676V12.9936L25.4362 13.0736C23.926 13.127 22.8866 13.3582 22.318 13.7673C21.7672 14.1764 21.4918 14.7634 21.4918 15.5283Z" fill="var(--fill-0, #161719)"/>
<path d="M33.0502 5.65635H36.3284V7.55069C36.9147 6.76805 37.5632 6.18997 38.274 5.81644C38.9847 5.42512 39.722 5.22946 40.486 5.22946C41.4455 5.22946 42.245 5.4429 42.8847 5.8698C43.5243 6.2789 44.004 6.86588 44.3239 7.63074C45.5143 6.02988 47.0246 5.22946 48.8546 5.22946C50.2228 5.22946 51.2799 5.62078 52.0262 6.40342C52.7724 7.16827 53.1455 8.36891 53.1455 10.0053V19.5304H49.7874V10.5923C49.7874 9.61402 49.6186 8.94699 49.2811 8.59125C48.9435 8.21772 48.4549 8.03095 47.8152 8.03095C47.4776 8.03095 47.1223 8.09321 46.7492 8.21772C46.376 8.34223 46.0207 8.55567 45.6831 8.85806C45.4166 9.10708 45.1945 9.40057 45.0168 9.73853C44.8569 10.0765 44.7769 10.4589 44.7769 10.8858V19.5304H41.4188V10.619C41.4188 9.67627 41.25 9.00925 40.9125 8.61793C40.5749 8.22661 40.0951 8.03095 39.4733 8.03095C38.7093 8.03095 37.9986 8.34223 37.3412 8.96478C37.1102 9.19602 36.897 9.48951 36.7015 9.84525C36.5061 10.201 36.4083 10.6635 36.4083 11.2327V19.5304H33.0502V5.65635Z" fill="var(--fill-0, #161719)"/>
<path d="M55.0917 12.7001C55.0917 11.0993 55.376 9.74742 55.9446 8.64461C56.5131 7.52401 57.3038 6.67912 58.3166 6.10993C59.3293 5.52295 60.502 5.22946 61.8346 5.22946C63.2738 5.22946 64.4642 5.52295 65.4059 6.10993C66.3476 6.67912 67.0494 7.47954 67.5114 8.51121C67.9733 9.54287 68.2043 10.7435 68.2043 12.1131V13.3671H58.3965C58.4676 14.7012 58.7874 15.715 59.356 16.4088C59.9245 17.1025 60.7507 17.4493 61.8346 17.4493C62.7763 17.4493 63.4781 17.2714 63.94 16.9157C64.402 16.5599 64.7129 16.0619 64.8729 15.4216H68.0177C67.7868 16.8445 67.1649 17.9562 66.1521 18.7567C65.1394 19.5571 63.7091 19.9573 61.8612 19.9573C59.6936 19.9573 58.0234 19.3259 56.8507 18.063C55.6781 16.7823 55.0917 14.9947 55.0917 12.7001ZM64.9795 11.286C64.9262 10.1121 64.6774 9.2138 64.2332 8.59125C63.789 7.96869 62.9895 7.65742 61.8346 7.65742C60.6797 7.65742 59.8535 7.99538 59.356 8.67129C58.8585 9.32942 58.5475 10.201 58.4232 11.286H64.9795Z" fill="var(--fill-0, #161719)"/>
<path d="M75.5549 0.480256H78.8331L87.4149 13.9541V0.480256H90.773V19.5304H87.5748L78.9397 6.13661V19.5304H75.5549V0.480256Z" fill="var(--fill-0, #161719)"/>
<path d="M93.6187 5.65635H96.9768V19.5304H93.6187V5.65635ZM93.592 0.426895H96.9768V3.44184H93.592V0.426895Z" fill="var(--fill-0, #161719)"/>
<path d="M109.102 18.3298V16.9691C108.587 17.645 107.974 18.1697 107.263 18.5432C106.552 18.9168 105.726 19.1035 104.784 19.1035C103.505 19.1035 102.439 18.81 101.586 18.2231C100.733 17.6361 100.094 16.8268 99.6673 15.7951C99.2587 14.7456 99.0543 13.5539 99.0543 12.2199C99.0543 10.8147 99.2942 9.58734 99.7739 8.53789C100.254 7.48844 100.938 6.67912 101.826 6.10993C102.732 5.52295 103.798 5.22946 105.024 5.22946C105.806 5.22946 106.552 5.38065 107.263 5.68303C107.974 5.96763 108.613 6.49235 109.182 7.2572V5.65635H112.46V17.5027C112.46 19.0679 112.256 20.4109 111.847 21.5315C111.456 22.6521 110.79 23.5059 109.848 24.0928C108.907 24.6976 107.601 25 105.93 25C104.012 25 102.51 24.6354 101.426 23.9061C100.36 23.1946 99.7473 22.0562 99.5874 20.4909H102.839C102.981 21.2024 103.283 21.7094 103.745 22.0117C104.225 22.3319 104.944 22.492 105.904 22.492C107.112 22.492 107.947 22.1451 108.409 21.4514C108.871 20.7577 109.102 19.7172 109.102 18.3298ZM109.129 11.9797C109.129 10.7702 108.862 9.79189 108.329 9.04482C107.796 8.29776 106.961 7.92423 105.824 7.92423C104.864 7.92423 104.065 8.26218 103.425 8.9381C102.803 9.61402 102.492 10.6901 102.492 12.1665C102.492 13.1804 102.643 13.9986 102.945 14.6211C103.248 15.2259 103.638 15.6706 104.118 15.9552C104.616 16.222 105.149 16.3554 105.717 16.3554C106.872 16.3554 107.725 15.9819 108.276 15.2348C108.844 14.4877 109.129 13.545 109.129 12.4066V11.9797Z" fill="var(--fill-0, #161719)"/>
<path d="M114.949 0.480256H118.307V7.44397C119 6.62576 119.719 6.05656 120.466 5.73639C121.212 5.39844 121.985 5.22946 122.784 5.22946C124.312 5.22946 125.467 5.66524 126.249 6.53682C127.031 7.39061 127.422 8.62682 127.422 10.2455V19.5304H124.064V10.8858C124.064 9.85414 123.868 9.12487 123.477 8.69797C123.104 8.25329 122.527 8.03095 121.745 8.03095C121.301 8.03095 120.865 8.11099 120.439 8.27108C120.03 8.43116 119.657 8.68019 119.32 9.01814C118.982 9.32053 118.724 9.64959 118.547 10.0053C118.387 10.3433 118.307 10.7969 118.307 11.3661V19.5304H114.949V0.480256Z" fill="var(--fill-0, #161719)"/>
<path d="M130.751 14.7279V8.29776H128.565V5.65635H130.751V1.92103H134.109V5.65635H137.547V8.29776H134.109V15.0747C134.109 15.6973 134.251 16.1864 134.535 16.5422C134.82 16.8979 135.255 17.0758 135.841 17.0758C136.179 17.0758 136.481 17.0491 136.747 16.9957C137.014 16.9424 137.263 16.8801 137.494 16.809L138 19.317C137.556 19.4593 137.094 19.5749 136.614 19.6638C136.152 19.7528 135.619 19.7972 135.015 19.7972C133.913 19.7972 133.052 19.6016 132.43 19.2102C131.808 18.8011 131.373 18.2231 131.124 17.476C130.875 16.7111 130.751 15.7951 130.751 14.7279Z" fill="var(--fill-0, #161719)"/>
</g>
<defs>
<filter id="filter0_ii_0_250" x="-1.16195" y="-1.16195" width="140.324" height="27.3239" filterUnits="userSpaceOnUse" color-interpolation-filters="sRGB">
<feFlood flood-opacity="0" result="BackgroundImageFix"/>
<feBlend mode="normal" in="SourceGraphic" in2="BackgroundImageFix" result="shape"/>
<feColorMatrix in="SourceAlpha" type="matrix" values="0 0 0 0 0 0 0 0 0 0 0 0 0 0 0 0 0 0 127 0" result="hardAlpha"/>
<feOffset dx="1.16195" dy="1.16195"/>
<feGaussianBlur stdDeviation="2.32389"/>
<feComposite in2="hardAlpha" operator="arithmetic" k2="-1" k3="1"/>
<feColorMatrix type="matrix" values="0 0 0 0 1 0 0 0 0 1 0 0 0 0 1 0 0 0 0.25 0"/>
<feBlend mode="normal" in2="shape" result="effect1_innerShadow_0_250"/>
<feColorMatrix in="SourceAlpha" type="matrix" values="0 0 0 0 0 0 0 0 0 0 0 0 0 0 0 0 0 0 127 0" result="hardAlpha"/>
<feOffset dx="-1.16195" dy="-1.16195"/>
<feGaussianBlur stdDeviation="1.16195"/>
<feComposite in2="hardAlpha" operator="arithmetic" k2="-1" k3="1"/>
<feColorMatrix type="matrix" values="0 0 0 0 1 0 0 0 0 1 0 0 0 0 1 0 0 0 0.25 0"/>
<feBlend mode="normal" in2="effect1_innerShadow_0_250" result="effect2_innerShadow_0_250"/>
</filter>
</defs>
</svg>
