<?xml version="1.0" encoding="UTF-8"?>
<svg id="Layer_2" data-name="Layer 2" xmlns="http://www.w3.org/2000/svg" viewBox="0 0 912.57 894.66">
  <defs>
    <style>
      .cls-1 {
        fill: #14a0fc;
      }

      .cls-2 {
        fill: #fe4b29;
      }

      .cls-3 {
        fill: #fe9301;
      }

      .cls-4 {
        fill: #fff;
      }

      .cls-5 {
        fill: #b651ed;
      }

      .cls-6 {
        fill: #46c419;
      }
    </style>
  </defs>
  <g id="Layer_1-2" data-name="Layer 1">
    <g>
      <path class="cls-4" d="M371.95,111.73c17.12-1.84,20.65,10.37,31.69,19.15,32.23,25.63,76.22,23.02,107.83-2.17,9.17-7.31,11.25-16.76,24.57-17.34,21.13-.92,28.13,23.62,34.09,39.73,9.73,26.28,29.44,92.18,27.82,118.44-1.32,21.31-26.91,48.89-41.06,64.83-10.44,11.77-22.89,31.21-41.14,22.98-30.19-13.63,9.25-56.06,12.21-75.58,2.42-15.96-10.64-33.87-19.98-46.23-7.35-9.72-39.6-44.3-50.38-45.86-14.28-2.08-55.19,46.84-62.82,59.22-5.84,9.47-12.86,21.21-10.75,32.57,4.02,21.67,28.22,41.6,22.76,65.82-3.19,14.15-23.61,14.58-33.84,6.56-7.22-5.66-23.32-26.02-29.93-34.17-29.76-36.71-33.26-41.84-23.29-90.1,4.73-22.89,12.06-48.7,19.82-70.74,5.42-15.39,13.72-45.1,32.39-47.1Z"/>
      <path class="cls-4" d="M596.25,547.81c5.58-.79,12.1,1.3,17.64,2.59,15.56,3.62,58.49,14.98,69.74,23.62,21.21,16.28,43.94,82.55,52.31,109.32,4.69,14.97,16.74,40.78,2.05,52.27-10.18,7.96-20.62,2.41-32.1,2.74-34.44.98-67.45,25.03-79.73,56.82-5.19,13.44-3.89,27.5-23.3,28.32-16.44.7-50.92-26.73-64.67-37.16-20.74-15.74-63.92-47.64-69.19-72.93-2.93-14.03-4.23-64.69-1.39-78.18,1.91-9.08,10.08-15.13,19.38-14.75,26.49,1.08,23.72,49.2,35.74,65.68,13.36,18.3,73.18,31.64,95.45,32.73,16.9.83,16.94-1.94,19.78-17.81,3.36-18.74,6.95-71.72-2.6-87.14-9.44-15.23-47.92-26.2-53.06-38.9-4.71-11.62,1.01-25.39,13.94-27.21Z"/>
      <path class="cls-4" d="M309.24,547.84c19.5-2.06,30.9,18.6,17.08,32.47-13.12,13.17-44.32,18.93-51.69,38.88-5.56,15.03-3.41,70.64.73,87.21.96,3.84,2.59,8.57,4.9,11.82,6.55,3.94,49.58-5.25,59.13-7.8,12.81-3.43,41.56-12.58,49.57-22.88,14.08-18.1,7.84-70.22,41.15-66.21,10.23,1.23,13.81,7.85,14.65,17.39,1.54,17.5,1.72,64.85-3.23,80.48-6.61,20.87-52.22,55.89-70.79,69.93-10.61,8.02-40.41,30.56-51.69,33.3-30.84,7.51-27.33-19.76-37.6-38.52-13.97-25.52-46.52-44.75-75.64-45.58-16.4-.47-37.97,7.94-38.47-18.74-.32-16.86,18.46-64.22,25.53-81.87,7.77-19.42,20.74-54.86,38.79-65.71,10.51-6.31,65.03-22.86,77.59-24.18Z"/>
      <path class="cls-4" d="M310.47,523.35c-1.36,1.35-4.66,3.11-6.51,3.95-10.54,4.79-70.91,20.45-81.43,20.25-20.44-.38-61.53-29.78-79.23-42.1-12.62-8.78-26.53-18.79-38.43-28.45-9.26-7.52-22.54-15.8-22.45-29.13.12-16.89,15.75-18.09,26.9-24.64,27.96-16.43,44.18-48.9,41.36-81.21-1.62-18.48-24.4-45.79,1.43-55.74,8.17-3.15,36.47-3.62,46.73-3.57,22.68.11,80.51,2.29,98.08,14.78,10.15,7.22,46.82,52.49,54.17,64.27,5.81,9.32,7.94,20.73-1.83,28.29-25.61,19.82-50.74-32.9-78.02-33.55-14-.33-36.01,8.12-49,13.81-6.91,3.03-39.22,18.85-40.65,24.91.49,5.21,3.15,10.45,5.12,15.28,8.49,20.8,32.9,66.99,53.62,75.96,18.58,8.04,56.42-4.99,70.61,10.2,6.27,6.72,6.05,20.24-.46,26.68Z"/>
      <path class="cls-4" d="M721.72,283.15c9.02.07,24.34.06,32.66,1.36,8.81,1.38,17.51,8.25,18.84,17.44,1.17,8.1-6.27,18.32-8.45,27.12-9.23,37.26,6.39,77.07,40.34,95.6,8.82,4.81,21.97,5.49,24.07,17.73s-1.66,17.43-9.66,25.03c-18.68,17.77-54.43,41.28-76.77,55.6-14.71,9.43-35.8,24.34-53.54,24.61-9.13.14-71.13-15.84-80.44-19.98-17.86-7.95-14.32-33.86,2.75-36.93,18.89-3.41,49.12,2.31,64.4-6.66,18.53-10.89,42.55-54.7,50.48-74.92,2.85-7.27,6.84-13.66-.31-19.7-15.96-13.48-70.47-35.94-90.87-32.47-22.54,3.83-47.87,51.69-72,33.71-11.64-8.67-7.07-22.07-.06-31.93,10.02-14.1,44.64-57.94,57.99-64.62,20.55-10.28,76.32-11.16,100.56-10.98Z"/>
      <path class="cls-6" d="M700.79,758.31c93.08-8.91,102.72,130.16,12.11,136.11-89.5,5.88-100.04-127.7-12.11-136.11Z"/>
      <path class="cls-3" d="M197.79,758.32c92.34-8.58,102.51,129.58,12.11,136.11-90.7,6.56-99.84-127.96-12.11-136.11Z"/>
      <path class="cls-1" d="M840.12,284.58c88.31-8.98,99.49,124.43,13.5,131.93-88.03,7.68-98.43-123.29-13.5-131.93Z"/>
      <path class="cls-2" d="M59.85,284.58c87.25-8.1,97.63,125.4,12.11,131.93-88.26,6.75-98.87-123.88-12.11-131.93Z"/>
      <path class="cls-5" d="M449.99.34c80.91-7.51,100.85,110.55,20.97,128.25C380.37,148.67,358.68,8.81,449.99.34Z"/>
    </g>
  </g>
</svg>